<svg xmlns="http://www.w3.org/2000/svg" xmlns:xlink="http://www.w3.org/1999/xlink" width="500" zoomAndPan="magnify" viewBox="0 0 375 374.999991" height="500" preserveAspectRatio="xMidYMid meet" version="1.0"><defs><g/><clipPath id="01eaf7a37c"><path d="M 75.703125 37.578125 L 309.132812 37.578125 L 309.132812 241.257812 L 75.703125 241.257812 Z M 75.703125 37.578125 " clip-rule="nonzero"/></clipPath><clipPath id="3f4b57e663"><path d="M 66.132812 174 L 174 174 L 174 240 L 66.132812 240 Z M 66.132812 174 " clip-rule="nonzero"/></clipPath></defs><g clip-path="url(#01eaf7a37c)"><path fill="#2e2d2d" d="M 308.753906 134.699219 C 308.003906 131.328125 306.21875 128.339844 303.589844 126.054688 L 208.902344 43.742188 C 204.328125 39.769531 198.480469 37.578125 192.4375 37.578125 C 186.390625 37.578125 180.542969 39.769531 175.972656 43.742188 L 81.285156 126.054688 C 78.65625 128.339844 76.871094 131.328125 76.121094 134.699219 C 75.445312 137.753906 75.667969 140.929688 76.777344 143.875 C 77.875 146.804688 79.777344 149.328125 82.273438 151.175781 C 85.046875 153.226562 88.347656 154.308594 91.828125 154.308594 L 102 154.308594 L 102 166.164062 C 106.0625 164.40625 110.265625 162.992188 114.554688 161.929688 L 114.554688 145.363281 C 114.554688 143.386719 112.976562 141.789062 111.027344 141.789062 L 91.828125 141.789062 C 88.554688 141.789062 87.046875 137.65625 89.53125 135.496094 L 184.21875 53.183594 C 186.582031 51.128906 189.511719 50.101562 192.4375 50.101562 C 195.363281 50.101562 198.289062 51.128906 200.65625 53.183594 L 295.34375 135.496094 C 297.828125 137.65625 296.320312 141.789062 293.046875 141.789062 L 273.847656 141.789062 C 271.898438 141.789062 270.320312 143.386719 270.320312 145.363281 L 270.320312 225.160156 C 270.320312 227.132812 268.742188 228.734375 266.792969 228.734375 L 211.988281 228.734375 C 209.621094 233.394531 206.515625 237.617188 202.828125 241.257812 L 266.792969 241.257812 C 275.660156 241.257812 282.875 234.035156 282.875 225.160156 L 282.875 154.308594 L 293.046875 154.308594 C 296.527344 154.308594 299.828125 153.226562 302.601562 151.175781 C 305.097656 149.328125 307 146.804688 308.097656 143.875 C 309.203125 140.929688 309.429688 137.753906 308.753906 134.699219 " fill-opacity="1" fill-rule="nonzero"/></g><path fill="#3eb83c" d="M 168.835938 240.382812 L 164.238281 240.382812 L 164.238281 228.238281 C 164.238281 209.796875 179.222656 194.847656 197.710938 194.847656 L 202.308594 194.847656 L 202.308594 206.992188 C 202.308594 225.429688 187.324219 240.382812 168.835938 240.382812 " fill-opacity="1" fill-rule="nonzero"/><g clip-path="url(#3f4b57e663)"><path fill="#299640" d="M 73.789062 231.191406 L 66.132812 226.78125 L 77.835938 206.558594 C 95.609375 175.851562 134.96875 165.332031 165.75 183.058594 L 173.40625 187.46875 L 161.703125 207.691406 C 143.929688 238.398438 104.570312 248.917969 73.789062 231.191406 " fill-opacity="1" fill-rule="nonzero"/></g><path fill="#7ecb29" d="M 213.515625 183.828125 L 208.917969 183.828125 L 208.917969 171.683594 C 208.917969 153.242188 223.902344 138.292969 242.390625 138.292969 L 246.988281 138.292969 L 246.988281 150.4375 C 246.988281 168.878906 232.003906 183.828125 213.515625 183.828125 " fill-opacity="1" fill-rule="nonzero"/><path fill="#3eb83c" d="M 195.628906 183.828125 L 202.308594 183.828125 L 202.308594 166.1875 C 202.308594 139.394531 180.539062 117.679688 153.683594 117.679688 L 147.003906 117.679688 L 147.003906 135.320312 C 147.003906 162.109375 168.773438 183.828125 195.628906 183.828125 " fill-opacity="1" fill-rule="nonzero"/><g fill="#299640" fill-opacity="1"><g transform="translate(146.431357, 290.614903)"><g><path d="M 19.375 0 L 13.921875 0 L 13.921875 -8.1875 L 7.625 -8.1875 L 7.625 0 L 2.171875 0 L 2.171875 -20.078125 L 7.625 -20.078125 L 7.625 -12.640625 L 13.921875 -12.640625 L 13.921875 -20.078125 L 19.375 -20.078125 Z M 19.375 0 "/></g></g></g><g fill="#299640" fill-opacity="1"><g transform="translate(167.96932, 290.614903)"><g><path d="M 21.28125 0 L 14.171875 0 L 6.84375 -14.140625 L 6.71875 -14.140625 C 6.757812 -13.710938 6.796875 -13.195312 6.828125 -12.59375 C 6.867188 -11.988281 6.898438 -11.375 6.921875 -10.75 C 6.953125 -10.125 6.96875 -9.554688 6.96875 -9.046875 L 6.96875 0 L 2.171875 0 L 2.171875 -20.078125 L 9.25 -20.078125 L 16.5625 -6.125 L 16.640625 -6.125 C 16.617188 -6.5625 16.59375 -7.070312 16.5625 -7.65625 C 16.53125 -8.238281 16.503906 -8.828125 16.484375 -9.421875 C 16.460938 -10.015625 16.453125 -10.539062 16.453125 -11 L 16.453125 -20.078125 L 21.28125 -20.078125 Z M 21.28125 0 "/></g></g></g><g fill="#299640" fill-opacity="1"><g transform="translate(191.415356, 290.614903)"><g><path d="M 7.515625 0 L 2.171875 0 L 2.171875 -20.078125 L 14.03125 -20.078125 L 14.03125 -15.71875 L 7.515625 -15.71875 L 7.515625 -11.890625 L 13.53125 -11.890625 L 13.53125 -7.546875 L 7.515625 -7.546875 Z M 7.515625 0 "/></g></g></g><g fill="#299640" fill-opacity="1"><g transform="translate(206.57017, 290.614903)"><g><path d="M 7.25 -15.5625 L 7.25 0 L 1.875 0 L 1.875 -15.5625 Z M 4.59375 -21.828125 C 5.351562 -21.828125 6.019531 -21.664062 6.59375 -21.34375 C 7.164062 -21.019531 7.453125 -20.382812 7.453125 -19.4375 C 7.453125 -18.507812 7.164062 -17.878906 6.59375 -17.546875 C 6.019531 -17.222656 5.351562 -17.0625 4.59375 -17.0625 C 3.800781 -17.0625 3.128906 -17.222656 2.578125 -17.546875 C 2.023438 -17.878906 1.75 -18.507812 1.75 -19.4375 C 1.75 -20.382812 2.023438 -21.019531 2.578125 -21.34375 C 3.128906 -21.664062 3.800781 -21.828125 4.59375 -21.828125 Z M 4.59375 -21.828125 "/></g></g></g><g fill="#299640" fill-opacity="1"><g transform="translate(215.712477, 290.614903)"><g><path d="M 11.59375 -15.828125 C 13.195312 -15.828125 14.503906 -15.375 15.515625 -14.46875 C 16.535156 -13.5625 17.046875 -12.113281 17.046875 -10.125 L 17.046875 0 L 11.671875 0 L 11.671875 -8.484375 C 11.671875 -9.515625 11.519531 -10.296875 11.21875 -10.828125 C 10.925781 -11.359375 10.453125 -11.625 9.796875 -11.625 C 8.773438 -11.625 8.085938 -11.207031 7.734375 -10.375 C 7.390625 -9.539062 7.21875 -8.351562 7.21875 -6.8125 L 7.21875 0 L 1.859375 0 L 1.859375 -15.5625 L 5.90625 -15.5625 L 6.640625 -13.5 L 6.84375 -13.5 C 7.164062 -13.988281 7.554688 -14.40625 8.015625 -14.75 C 8.472656 -15.101562 9 -15.367188 9.59375 -15.546875 C 10.1875 -15.734375 10.851562 -15.828125 11.59375 -15.828125 Z M 11.59375 -15.828125 "/></g></g></g><g fill="#2e2d2d" fill-opacity="1"><g transform="translate(94.963322, 316.863349)"><g><path d="M 5.8125 0 L 2.421875 -8.890625 L 2.359375 -8.890625 C 2.421875 -8.179688 2.453125 -7.34375 2.453125 -6.375 L 2.453125 0 L 1.375 0 L 1.375 -10.03125 L 3.140625 -10.03125 L 6.3125 -1.75 L 6.359375 -1.75 L 9.5625 -10.03125 L 11.3125 -10.03125 L 11.3125 0 L 10.140625 0 L 10.140625 -6.46875 C 10.140625 -7.207031 10.171875 -8.007812 10.234375 -8.875 L 10.1875 -8.875 L 6.75 0 Z M 5.8125 0 "/></g></g></g><g fill="#2e2d2d" fill-opacity="1"><g transform="translate(107.638237, 316.863349)"><g><path d="M 5.828125 0 L 5.609375 -1.0625 L 5.546875 -1.0625 C 5.171875 -0.59375 4.796875 -0.273438 4.421875 -0.109375 C 4.054688 0.0546875 3.59375 0.140625 3.03125 0.140625 C 2.28125 0.140625 1.691406 -0.0507812 1.265625 -0.4375 C 0.847656 -0.820312 0.640625 -1.367188 0.640625 -2.078125 C 0.640625 -3.597656 1.851562 -4.394531 4.28125 -4.46875 L 5.5625 -4.5 L 5.5625 -4.96875 C 5.5625 -5.5625 5.429688 -6 5.171875 -6.28125 C 4.921875 -6.5625 4.519531 -6.703125 3.96875 -6.703125 C 3.34375 -6.703125 2.632812 -6.507812 1.84375 -6.125 L 1.484375 -7 C 1.859375 -7.195312 2.265625 -7.351562 2.703125 -7.46875 C 3.148438 -7.582031 3.59375 -7.640625 4.03125 -7.640625 C 4.925781 -7.640625 5.585938 -7.441406 6.015625 -7.046875 C 6.453125 -6.648438 6.671875 -6.007812 6.671875 -5.125 L 6.671875 0 Z M 3.265625 -0.796875 C 3.972656 -0.796875 4.523438 -0.988281 4.921875 -1.375 C 5.328125 -1.769531 5.53125 -2.316406 5.53125 -3.015625 L 5.53125 -3.703125 L 4.390625 -3.65625 C 3.484375 -3.613281 2.832031 -3.46875 2.4375 -3.21875 C 2.039062 -2.976562 1.84375 -2.59375 1.84375 -2.0625 C 1.84375 -1.65625 1.960938 -1.34375 2.203125 -1.125 C 2.453125 -0.90625 2.804688 -0.796875 3.265625 -0.796875 Z M 3.265625 -0.796875 "/></g></g></g><g fill="#2e2d2d" fill-opacity="1"><g transform="translate(115.446094, 316.863349)"><g><path d="M 6.34375 0 L 6.34375 -4.859375 C 6.34375 -5.472656 6.203125 -5.929688 5.921875 -6.234375 C 5.648438 -6.535156 5.21875 -6.6875 4.625 -6.6875 C 3.832031 -6.6875 3.253906 -6.472656 2.890625 -6.046875 C 2.523438 -5.617188 2.34375 -4.914062 2.34375 -3.9375 L 2.34375 0 L 1.203125 0 L 1.203125 -7.515625 L 2.140625 -7.515625 L 2.3125 -6.484375 L 2.375 -6.484375 C 2.601562 -6.859375 2.925781 -7.144531 3.34375 -7.34375 C 3.769531 -7.550781 4.242188 -7.65625 4.765625 -7.65625 C 5.671875 -7.65625 6.347656 -7.4375 6.796875 -7 C 7.253906 -6.5625 7.484375 -5.863281 7.484375 -4.90625 L 7.484375 0 Z M 6.34375 0 "/></g></g></g><g fill="#2e2d2d" fill-opacity="1"><g transform="translate(124.062842, 316.863349)"><g><path d="M 5.828125 0 L 5.609375 -1.0625 L 5.546875 -1.0625 C 5.171875 -0.59375 4.796875 -0.273438 4.421875 -0.109375 C 4.054688 0.0546875 3.59375 0.140625 3.03125 0.140625 C 2.28125 0.140625 1.691406 -0.0507812 1.265625 -0.4375 C 0.847656 -0.820312 0.640625 -1.367188 0.640625 -2.078125 C 0.640625 -3.597656 1.851562 -4.394531 4.28125 -4.46875 L 5.5625 -4.5 L 5.5625 -4.96875 C 5.5625 -5.5625 5.429688 -6 5.171875 -6.28125 C 4.921875 -6.5625 4.519531 -6.703125 3.96875 -6.703125 C 3.34375 -6.703125 2.632812 -6.507812 1.84375 -6.125 L 1.484375 -7 C 1.859375 -7.195312 2.265625 -7.351562 2.703125 -7.46875 C 3.148438 -7.582031 3.59375 -7.640625 4.03125 -7.640625 C 4.925781 -7.640625 5.585938 -7.441406 6.015625 -7.046875 C 6.453125 -6.648438 6.671875 -6.007812 6.671875 -5.125 L 6.671875 0 Z M 3.265625 -0.796875 C 3.972656 -0.796875 4.523438 -0.988281 4.921875 -1.375 C 5.328125 -1.769531 5.53125 -2.316406 5.53125 -3.015625 L 5.53125 -3.703125 L 4.390625 -3.65625 C 3.484375 -3.613281 2.832031 -3.46875 2.4375 -3.21875 C 2.039062 -2.976562 1.84375 -2.59375 1.84375 -2.0625 C 1.84375 -1.65625 1.960938 -1.34375 2.203125 -1.125 C 2.453125 -0.90625 2.804688 -0.796875 3.265625 -0.796875 Z M 3.265625 -0.796875 "/></g></g></g><g fill="#2e2d2d" fill-opacity="1"><g transform="translate(131.870699, 316.863349)"><g><path d="M 7.359375 -7.515625 L 7.359375 -6.796875 L 5.96875 -6.625 C 6.09375 -6.46875 6.207031 -6.257812 6.3125 -6 C 6.414062 -5.75 6.46875 -5.457031 6.46875 -5.125 C 6.46875 -4.394531 6.210938 -3.804688 5.703125 -3.359375 C 5.203125 -2.921875 4.515625 -2.703125 3.640625 -2.703125 C 3.410156 -2.703125 3.195312 -2.722656 3 -2.765625 C 2.519531 -2.503906 2.28125 -2.179688 2.28125 -1.796875 C 2.28125 -1.585938 2.363281 -1.429688 2.53125 -1.328125 C 2.695312 -1.234375 2.988281 -1.1875 3.40625 -1.1875 L 4.734375 -1.1875 C 5.546875 -1.1875 6.171875 -1.015625 6.609375 -0.671875 C 7.046875 -0.335938 7.265625 0.15625 7.265625 0.8125 C 7.265625 1.644531 6.929688 2.28125 6.265625 2.71875 C 5.597656 3.15625 4.625 3.375 3.34375 3.375 C 2.351562 3.375 1.59375 3.191406 1.0625 2.828125 C 0.53125 2.460938 0.265625 1.945312 0.265625 1.28125 C 0.265625 0.820312 0.410156 0.425781 0.703125 0.09375 C 0.992188 -0.238281 1.40625 -0.46875 1.9375 -0.59375 C 1.75 -0.675781 1.585938 -0.804688 1.453125 -0.984375 C 1.328125 -1.171875 1.265625 -1.382812 1.265625 -1.625 C 1.265625 -1.90625 1.335938 -2.144531 1.484375 -2.34375 C 1.628906 -2.550781 1.859375 -2.753906 2.171875 -2.953125 C 1.785156 -3.109375 1.46875 -3.378906 1.21875 -3.765625 C 0.976562 -4.148438 0.859375 -4.585938 0.859375 -5.078125 C 0.859375 -5.898438 1.101562 -6.535156 1.59375 -6.984375 C 2.09375 -7.429688 2.796875 -7.65625 3.703125 -7.65625 C 4.085938 -7.65625 4.441406 -7.609375 4.765625 -7.515625 Z M 1.359375 1.265625 C 1.359375 1.671875 1.53125 1.976562 1.875 2.1875 C 2.21875 2.394531 2.710938 2.5 3.359375 2.5 C 4.304688 2.5 5.007812 2.351562 5.46875 2.0625 C 5.9375 1.78125 6.171875 1.394531 6.171875 0.90625 C 6.171875 0.5 6.039062 0.21875 5.78125 0.0625 C 5.53125 -0.09375 5.0625 -0.171875 4.375 -0.171875 L 3 -0.171875 C 2.488281 -0.171875 2.085938 -0.0507812 1.796875 0.1875 C 1.503906 0.4375 1.359375 0.796875 1.359375 1.265625 Z M 1.984375 -5.109375 C 1.984375 -4.585938 2.128906 -4.191406 2.421875 -3.921875 C 2.722656 -3.648438 3.140625 -3.515625 3.671875 -3.515625 C 4.785156 -3.515625 5.34375 -4.050781 5.34375 -5.125 C 5.34375 -6.257812 4.78125 -6.828125 3.65625 -6.828125 C 3.113281 -6.828125 2.695312 -6.679688 2.40625 -6.390625 C 2.125 -6.097656 1.984375 -5.671875 1.984375 -5.109375 Z M 1.984375 -5.109375 "/></g></g></g><g fill="#2e2d2d" fill-opacity="1"><g transform="translate(139.562021, 316.863349)"><g><path d="M 4.375 0.140625 C 3.269531 0.140625 2.394531 -0.195312 1.75 -0.875 C 1.101562 -1.550781 0.78125 -2.492188 0.78125 -3.703125 C 0.78125 -4.910156 1.078125 -5.867188 1.671875 -6.578125 C 2.273438 -7.296875 3.082031 -7.65625 4.09375 -7.65625 C 5.03125 -7.65625 5.769531 -7.34375 6.3125 -6.71875 C 6.863281 -6.101562 7.140625 -5.285156 7.140625 -4.265625 L 7.140625 -3.546875 L 1.96875 -3.546875 C 1.988281 -2.671875 2.207031 -2.003906 2.625 -1.546875 C 3.050781 -1.085938 3.648438 -0.859375 4.421875 -0.859375 C 5.234375 -0.859375 6.035156 -1.023438 6.828125 -1.359375 L 6.828125 -0.34375 C 6.421875 -0.175781 6.035156 -0.0546875 5.671875 0.015625 C 5.316406 0.0976562 4.882812 0.140625 4.375 0.140625 Z M 4.078125 -6.703125 C 3.472656 -6.703125 2.988281 -6.503906 2.625 -6.109375 C 2.269531 -5.710938 2.0625 -5.171875 2 -4.484375 L 5.921875 -4.484375 C 5.921875 -5.203125 5.757812 -5.75 5.4375 -6.125 C 5.125 -6.507812 4.671875 -6.703125 4.078125 -6.703125 Z M 4.078125 -6.703125 "/></g></g></g><g fill="#2e2d2d" fill-opacity="1"><g transform="translate(147.438428, 316.863349)"><g/></g></g><g fill="#2e2d2d" fill-opacity="1"><g transform="translate(151.085293, 316.863349)"><g><path d="M 0.015625 -7.515625 L 1.234375 -7.515625 L 2.875 -3.234375 C 3.238281 -2.253906 3.460938 -1.546875 3.546875 -1.109375 L 3.609375 -1.109375 C 3.671875 -1.335938 3.796875 -1.734375 3.984375 -2.296875 C 4.171875 -2.867188 4.789062 -4.609375 5.84375 -7.515625 L 7.0625 -7.515625 L 3.828125 1.046875 C 3.515625 1.890625 3.144531 2.488281 2.71875 2.84375 C 2.289062 3.195312 1.765625 3.375 1.140625 3.375 C 0.796875 3.375 0.453125 3.335938 0.109375 3.265625 L 0.109375 2.34375 C 0.359375 2.394531 0.640625 2.421875 0.953125 2.421875 C 1.734375 2.421875 2.289062 1.984375 2.625 1.109375 L 3.046875 0.046875 Z M 0.015625 -7.515625 "/></g></g></g><g fill="#2e2d2d" fill-opacity="1"><g transform="translate(158.159664, 316.863349)"><g><path d="M 7.703125 -3.765625 C 7.703125 -2.535156 7.390625 -1.578125 6.765625 -0.890625 C 6.148438 -0.203125 5.300781 0.140625 4.21875 0.140625 C 3.539062 0.140625 2.941406 -0.015625 2.421875 -0.328125 C 1.898438 -0.648438 1.492188 -1.101562 1.203125 -1.6875 C 0.921875 -2.28125 0.78125 -2.972656 0.78125 -3.765625 C 0.78125 -4.992188 1.085938 -5.945312 1.703125 -6.625 C 2.316406 -7.3125 3.171875 -7.65625 4.265625 -7.65625 C 5.316406 -7.65625 6.148438 -7.304688 6.765625 -6.609375 C 7.390625 -5.910156 7.703125 -4.960938 7.703125 -3.765625 Z M 1.96875 -3.765625 C 1.96875 -2.804688 2.160156 -2.070312 2.546875 -1.5625 C 2.929688 -1.0625 3.492188 -0.8125 4.234375 -0.8125 C 4.984375 -0.8125 5.550781 -1.0625 5.9375 -1.5625 C 6.320312 -2.0625 6.515625 -2.796875 6.515625 -3.765625 C 6.515625 -4.722656 6.320312 -5.445312 5.9375 -5.9375 C 5.550781 -6.4375 4.976562 -6.6875 4.21875 -6.6875 C 3.476562 -6.6875 2.914062 -6.441406 2.53125 -5.953125 C 2.15625 -5.460938 1.96875 -4.734375 1.96875 -3.765625 Z M 1.96875 -3.765625 "/></g></g></g><g fill="#2e2d2d" fill-opacity="1"><g transform="translate(166.639312, 316.863349)"><g><path d="M 2.28125 -7.515625 L 2.28125 -2.640625 C 2.28125 -2.023438 2.414062 -1.566406 2.6875 -1.265625 C 2.96875 -0.960938 3.40625 -0.8125 4 -0.8125 C 4.789062 -0.8125 5.367188 -1.023438 5.734375 -1.453125 C 6.097656 -1.890625 6.28125 -2.59375 6.28125 -3.5625 L 6.28125 -7.515625 L 7.421875 -7.515625 L 7.421875 0 L 6.46875 0 L 6.3125 -1.015625 L 6.25 -1.015625 C 6.019531 -0.640625 5.695312 -0.351562 5.28125 -0.15625 C 4.863281 0.0390625 4.390625 0.140625 3.859375 0.140625 C 2.941406 0.140625 2.253906 -0.078125 1.796875 -0.515625 C 1.347656 -0.953125 1.125 -1.644531 1.125 -2.59375 L 1.125 -7.515625 Z M 2.28125 -7.515625 "/></g></g></g><g fill="#2e2d2d" fill-opacity="1"><g transform="translate(175.25606, 316.863349)"><g><path d="M 4.640625 -7.65625 C 4.972656 -7.65625 5.269531 -7.628906 5.53125 -7.578125 L 5.375 -6.515625 C 5.0625 -6.585938 4.785156 -6.625 4.546875 -6.625 C 3.941406 -6.625 3.421875 -6.375 2.984375 -5.875 C 2.554688 -5.382812 2.34375 -4.769531 2.34375 -4.03125 L 2.34375 0 L 1.203125 0 L 1.203125 -7.515625 L 2.140625 -7.515625 L 2.28125 -6.125 L 2.328125 -6.125 C 2.609375 -6.613281 2.945312 -6.988281 3.34375 -7.25 C 3.738281 -7.519531 4.171875 -7.65625 4.640625 -7.65625 Z M 4.640625 -7.65625 "/></g></g></g><g fill="#2e2d2d" fill-opacity="1"><g transform="translate(180.986849, 316.863349)"><g/></g></g><g fill="#2e2d2d" fill-opacity="1"><g transform="translate(184.633715, 316.863349)"><g><path d="M 10.78125 0 L 10.78125 -4.890625 C 10.78125 -5.484375 10.648438 -5.929688 10.390625 -6.234375 C 10.140625 -6.535156 9.75 -6.6875 9.21875 -6.6875 C 8.5 -6.6875 7.972656 -6.484375 7.640625 -6.078125 C 7.304688 -5.671875 7.140625 -5.046875 7.140625 -4.203125 L 7.140625 0 L 6 0 L 6 -4.890625 C 6 -5.484375 5.867188 -5.929688 5.609375 -6.234375 C 5.347656 -6.535156 4.945312 -6.6875 4.40625 -6.6875 C 3.695312 -6.6875 3.175781 -6.472656 2.84375 -6.046875 C 2.507812 -5.617188 2.34375 -4.914062 2.34375 -3.9375 L 2.34375 0 L 1.203125 0 L 1.203125 -7.515625 L 2.140625 -7.515625 L 2.3125 -6.484375 L 2.375 -6.484375 C 2.59375 -6.847656 2.894531 -7.132812 3.28125 -7.34375 C 3.675781 -7.550781 4.113281 -7.65625 4.59375 -7.65625 C 5.769531 -7.65625 6.539062 -7.226562 6.90625 -6.375 L 6.953125 -6.375 C 7.179688 -6.769531 7.503906 -7.082031 7.921875 -7.3125 C 8.347656 -7.539062 8.835938 -7.65625 9.390625 -7.65625 C 10.234375 -7.65625 10.863281 -7.4375 11.28125 -7 C 11.707031 -6.5625 11.921875 -5.863281 11.921875 -4.90625 L 11.921875 0 Z M 10.78125 0 "/></g></g></g><g fill="#2e2d2d" fill-opacity="1"><g transform="translate(197.69251, 316.863349)"><g><path d="M 7.703125 -3.765625 C 7.703125 -2.535156 7.390625 -1.578125 6.765625 -0.890625 C 6.148438 -0.203125 5.300781 0.140625 4.21875 0.140625 C 3.539062 0.140625 2.941406 -0.015625 2.421875 -0.328125 C 1.898438 -0.648438 1.492188 -1.101562 1.203125 -1.6875 C 0.921875 -2.28125 0.78125 -2.972656 0.78125 -3.765625 C 0.78125 -4.992188 1.085938 -5.945312 1.703125 -6.625 C 2.316406 -7.3125 3.171875 -7.65625 4.265625 -7.65625 C 5.316406 -7.65625 6.148438 -7.304688 6.765625 -6.609375 C 7.390625 -5.910156 7.703125 -4.960938 7.703125 -3.765625 Z M 1.96875 -3.765625 C 1.96875 -2.804688 2.160156 -2.070312 2.546875 -1.5625 C 2.929688 -1.0625 3.492188 -0.8125 4.234375 -0.8125 C 4.984375 -0.8125 5.550781 -1.0625 5.9375 -1.5625 C 6.320312 -2.0625 6.515625 -2.796875 6.515625 -3.765625 C 6.515625 -4.722656 6.320312 -5.445312 5.9375 -5.9375 C 5.550781 -6.4375 4.976562 -6.6875 4.21875 -6.6875 C 3.476562 -6.6875 2.914062 -6.441406 2.53125 -5.953125 C 2.15625 -5.460938 1.96875 -4.734375 1.96875 -3.765625 Z M 1.96875 -3.765625 "/></g></g></g><g fill="#2e2d2d" fill-opacity="1"><g transform="translate(206.172158, 316.863349)"><g><path d="M 6.34375 0 L 6.34375 -4.859375 C 6.34375 -5.472656 6.203125 -5.929688 5.921875 -6.234375 C 5.648438 -6.535156 5.21875 -6.6875 4.625 -6.6875 C 3.832031 -6.6875 3.253906 -6.472656 2.890625 -6.046875 C 2.523438 -5.617188 2.34375 -4.914062 2.34375 -3.9375 L 2.34375 0 L 1.203125 0 L 1.203125 -7.515625 L 2.140625 -7.515625 L 2.3125 -6.484375 L 2.375 -6.484375 C 2.601562 -6.859375 2.925781 -7.144531 3.34375 -7.34375 C 3.769531 -7.550781 4.242188 -7.65625 4.765625 -7.65625 C 5.671875 -7.65625 6.347656 -7.4375 6.796875 -7 C 7.253906 -6.5625 7.484375 -5.863281 7.484375 -4.90625 L 7.484375 0 Z M 6.34375 0 "/></g></g></g><g fill="#2e2d2d" fill-opacity="1"><g transform="translate(214.788906, 316.863349)"><g><path d="M 4.375 0.140625 C 3.269531 0.140625 2.394531 -0.195312 1.75 -0.875 C 1.101562 -1.550781 0.78125 -2.492188 0.78125 -3.703125 C 0.78125 -4.910156 1.078125 -5.867188 1.671875 -6.578125 C 2.273438 -7.296875 3.082031 -7.65625 4.09375 -7.65625 C 5.03125 -7.65625 5.769531 -7.34375 6.3125 -6.71875 C 6.863281 -6.101562 7.140625 -5.285156 7.140625 -4.265625 L 7.140625 -3.546875 L 1.96875 -3.546875 C 1.988281 -2.671875 2.207031 -2.003906 2.625 -1.546875 C 3.050781 -1.085938 3.648438 -0.859375 4.421875 -0.859375 C 5.234375 -0.859375 6.035156 -1.023438 6.828125 -1.359375 L 6.828125 -0.34375 C 6.421875 -0.175781 6.035156 -0.0546875 5.671875 0.015625 C 5.316406 0.0976562 4.882812 0.140625 4.375 0.140625 Z M 4.078125 -6.703125 C 3.472656 -6.703125 2.988281 -6.503906 2.625 -6.109375 C 2.269531 -5.710938 2.0625 -5.171875 2 -4.484375 L 5.921875 -4.484375 C 5.921875 -5.203125 5.757812 -5.75 5.4375 -6.125 C 5.125 -6.507812 4.671875 -6.703125 4.078125 -6.703125 Z M 4.078125 -6.703125 "/></g></g></g><g fill="#2e2d2d" fill-opacity="1"><g transform="translate(222.665313, 316.863349)"><g><path d="M 0.015625 -7.515625 L 1.234375 -7.515625 L 2.875 -3.234375 C 3.238281 -2.253906 3.460938 -1.546875 3.546875 -1.109375 L 3.609375 -1.109375 C 3.671875 -1.335938 3.796875 -1.734375 3.984375 -2.296875 C 4.171875 -2.867188 4.789062 -4.609375 5.84375 -7.515625 L 7.0625 -7.515625 L 3.828125 1.046875 C 3.515625 1.890625 3.144531 2.488281 2.71875 2.84375 C 2.289062 3.195312 1.765625 3.375 1.140625 3.375 C 0.796875 3.375 0.453125 3.335938 0.109375 3.265625 L 0.109375 2.34375 C 0.359375 2.394531 0.640625 2.421875 0.953125 2.421875 C 1.734375 2.421875 2.289062 1.984375 2.625 1.109375 L 3.046875 0.046875 Z M 0.015625 -7.515625 "/></g></g></g><g fill="#2e2d2d" fill-opacity="1"><g transform="translate(229.739684, 316.863349)"><g/></g></g><g fill="#2e2d2d" fill-opacity="1"><g transform="translate(233.38655, 316.863349)"><g><path d="M 4.375 0.140625 C 3.269531 0.140625 2.394531 -0.195312 1.75 -0.875 C 1.101562 -1.550781 0.78125 -2.492188 0.78125 -3.703125 C 0.78125 -4.910156 1.078125 -5.867188 1.671875 -6.578125 C 2.273438 -7.296875 3.082031 -7.65625 4.09375 -7.65625 C 5.03125 -7.65625 5.769531 -7.34375 6.3125 -6.71875 C 6.863281 -6.101562 7.140625 -5.285156 7.140625 -4.265625 L 7.140625 -3.546875 L 1.96875 -3.546875 C 1.988281 -2.671875 2.207031 -2.003906 2.625 -1.546875 C 3.050781 -1.085938 3.648438 -0.859375 4.421875 -0.859375 C 5.234375 -0.859375 6.035156 -1.023438 6.828125 -1.359375 L 6.828125 -0.34375 C 6.421875 -0.175781 6.035156 -0.0546875 5.671875 0.015625 C 5.316406 0.0976562 4.882812 0.140625 4.375 0.140625 Z M 4.078125 -6.703125 C 3.472656 -6.703125 2.988281 -6.503906 2.625 -6.109375 C 2.269531 -5.710938 2.0625 -5.171875 2 -4.484375 L 5.921875 -4.484375 C 5.921875 -5.203125 5.757812 -5.75 5.4375 -6.125 C 5.125 -6.507812 4.671875 -6.703125 4.078125 -6.703125 Z M 4.078125 -6.703125 "/></g></g></g><g fill="#2e2d2d" fill-opacity="1"><g transform="translate(241.262957, 316.863349)"><g><path d="M 4.59375 -6.625 L 2.6875 -6.625 L 2.6875 0 L 1.546875 0 L 1.546875 -6.625 L 0.203125 -6.625 L 0.203125 -7.140625 L 1.546875 -7.5625 L 1.546875 -7.984375 C 1.546875 -9.828125 2.351562 -10.75 3.96875 -10.75 C 4.363281 -10.75 4.828125 -10.664062 5.359375 -10.5 L 5.0625 -9.59375 C 4.625 -9.738281 4.25 -9.8125 3.9375 -9.8125 C 3.507812 -9.8125 3.191406 -9.664062 2.984375 -9.375 C 2.785156 -9.09375 2.6875 -8.632812 2.6875 -8 L 2.6875 -7.515625 L 4.59375 -7.515625 Z M 4.59375 -6.625 "/></g></g></g><g fill="#2e2d2d" fill-opacity="1"><g transform="translate(246.020334, 316.863349)"><g><path d="M 4.59375 -6.625 L 2.6875 -6.625 L 2.6875 0 L 1.546875 0 L 1.546875 -6.625 L 0.203125 -6.625 L 0.203125 -7.140625 L 1.546875 -7.5625 L 1.546875 -7.984375 C 1.546875 -9.828125 2.351562 -10.75 3.96875 -10.75 C 4.363281 -10.75 4.828125 -10.664062 5.359375 -10.5 L 5.0625 -9.59375 C 4.625 -9.738281 4.25 -9.8125 3.9375 -9.8125 C 3.507812 -9.8125 3.191406 -9.664062 2.984375 -9.375 C 2.785156 -9.09375 2.6875 -8.632812 2.6875 -8 L 2.6875 -7.515625 L 4.59375 -7.515625 Z M 4.59375 -6.625 "/></g></g></g><g fill="#2e2d2d" fill-opacity="1"><g transform="translate(250.777712, 316.863349)"><g><path d="M 2.34375 0 L 1.203125 0 L 1.203125 -7.515625 L 2.34375 -7.515625 Z M 1.109375 -9.546875 C 1.109375 -9.804688 1.171875 -10 1.296875 -10.125 C 1.429688 -10.25 1.59375 -10.3125 1.78125 -10.3125 C 1.96875 -10.3125 2.125 -10.25 2.25 -10.125 C 2.382812 -10 2.453125 -9.804688 2.453125 -9.546875 C 2.453125 -9.296875 2.382812 -9.109375 2.25 -8.984375 C 2.125 -8.859375 1.96875 -8.796875 1.78125 -8.796875 C 1.59375 -8.796875 1.429688 -8.859375 1.296875 -8.984375 C 1.171875 -9.109375 1.109375 -9.296875 1.109375 -9.546875 Z M 1.109375 -9.546875 "/></g></g></g><g fill="#2e2d2d" fill-opacity="1"><g transform="translate(254.328607, 316.863349)"><g><path d="M 4.21875 0.140625 C 3.125 0.140625 2.273438 -0.191406 1.671875 -0.859375 C 1.078125 -1.535156 0.78125 -2.484375 0.78125 -3.703125 C 0.78125 -4.960938 1.082031 -5.9375 1.6875 -6.625 C 2.300781 -7.3125 3.164062 -7.65625 4.28125 -7.65625 C 4.644531 -7.65625 5.003906 -7.613281 5.359375 -7.53125 C 5.722656 -7.457031 6.007812 -7.367188 6.21875 -7.265625 L 5.875 -6.296875 C 5.625 -6.398438 5.347656 -6.484375 5.046875 -6.546875 C 4.753906 -6.609375 4.492188 -6.640625 4.265625 -6.640625 C 2.734375 -6.640625 1.96875 -5.664062 1.96875 -3.71875 C 1.96875 -2.800781 2.15625 -2.09375 2.53125 -1.59375 C 2.90625 -1.101562 3.457031 -0.859375 4.1875 -0.859375 C 4.8125 -0.859375 5.453125 -0.992188 6.109375 -1.265625 L 6.109375 -0.25 C 5.609375 0.0078125 4.976562 0.140625 4.21875 0.140625 Z M 4.21875 0.140625 "/></g></g></g><g fill="#2e2d2d" fill-opacity="1"><g transform="translate(261.012242, 316.863349)"><g><path d="M 2.34375 0 L 1.203125 0 L 1.203125 -7.515625 L 2.34375 -7.515625 Z M 1.109375 -9.546875 C 1.109375 -9.804688 1.171875 -10 1.296875 -10.125 C 1.429688 -10.25 1.59375 -10.3125 1.78125 -10.3125 C 1.96875 -10.3125 2.125 -10.25 2.25 -10.125 C 2.382812 -10 2.453125 -9.804688 2.453125 -9.546875 C 2.453125 -9.296875 2.382812 -9.109375 2.25 -8.984375 C 2.125 -8.859375 1.96875 -8.796875 1.78125 -8.796875 C 1.59375 -8.796875 1.429688 -8.859375 1.296875 -8.984375 C 1.171875 -9.109375 1.109375 -9.296875 1.109375 -9.546875 Z M 1.109375 -9.546875 "/></g></g></g><g fill="#2e2d2d" fill-opacity="1"><g transform="translate(264.563138, 316.863349)"><g><path d="M 4.375 0.140625 C 3.269531 0.140625 2.394531 -0.195312 1.75 -0.875 C 1.101562 -1.550781 0.78125 -2.492188 0.78125 -3.703125 C 0.78125 -4.910156 1.078125 -5.867188 1.671875 -6.578125 C 2.273438 -7.296875 3.082031 -7.65625 4.09375 -7.65625 C 5.03125 -7.65625 5.769531 -7.34375 6.3125 -6.71875 C 6.863281 -6.101562 7.140625 -5.285156 7.140625 -4.265625 L 7.140625 -3.546875 L 1.96875 -3.546875 C 1.988281 -2.671875 2.207031 -2.003906 2.625 -1.546875 C 3.050781 -1.085938 3.648438 -0.859375 4.421875 -0.859375 C 5.234375 -0.859375 6.035156 -1.023438 6.828125 -1.359375 L 6.828125 -0.34375 C 6.421875 -0.175781 6.035156 -0.0546875 5.671875 0.015625 C 5.316406 0.0976562 4.882812 0.140625 4.375 0.140625 Z M 4.078125 -6.703125 C 3.472656 -6.703125 2.988281 -6.503906 2.625 -6.109375 C 2.269531 -5.710938 2.0625 -5.171875 2 -4.484375 L 5.921875 -4.484375 C 5.921875 -5.203125 5.757812 -5.75 5.4375 -6.125 C 5.125 -6.507812 4.671875 -6.703125 4.078125 -6.703125 Z M 4.078125 -6.703125 "/></g></g></g><g fill="#2e2d2d" fill-opacity="1"><g transform="translate(272.439545, 316.863349)"><g><path d="M 6.34375 0 L 6.34375 -4.859375 C 6.34375 -5.472656 6.203125 -5.929688 5.921875 -6.234375 C 5.648438 -6.535156 5.21875 -6.6875 4.625 -6.6875 C 3.832031 -6.6875 3.253906 -6.472656 2.890625 -6.046875 C 2.523438 -5.617188 2.34375 -4.914062 2.34375 -3.9375 L 2.34375 0 L 1.203125 0 L 1.203125 -7.515625 L 2.140625 -7.515625 L 2.3125 -6.484375 L 2.375 -6.484375 C 2.601562 -6.859375 2.925781 -7.144531 3.34375 -7.34375 C 3.769531 -7.550781 4.242188 -7.65625 4.765625 -7.65625 C 5.671875 -7.65625 6.347656 -7.4375 6.796875 -7 C 7.253906 -6.5625 7.484375 -5.863281 7.484375 -4.90625 L 7.484375 0 Z M 6.34375 0 "/></g></g></g><g fill="#2e2d2d" fill-opacity="1"><g transform="translate(281.056293, 316.863349)"><g><path d="M 3.640625 -0.796875 C 3.835938 -0.796875 4.03125 -0.8125 4.21875 -0.84375 C 4.40625 -0.875 4.550781 -0.90625 4.65625 -0.9375 L 4.65625 -0.0625 C 4.539062 -0.0078125 4.363281 0.0351562 4.125 0.078125 C 3.882812 0.117188 3.664062 0.140625 3.46875 0.140625 C 2.019531 0.140625 1.296875 -0.625 1.296875 -2.15625 L 1.296875 -6.625 L 0.21875 -6.625 L 0.21875 -7.1875 L 1.296875 -7.65625 L 1.765625 -9.265625 L 2.421875 -9.265625 L 2.421875 -7.515625 L 4.609375 -7.515625 L 4.609375 -6.625 L 2.421875 -6.625 L 2.421875 -2.203125 C 2.421875 -1.753906 2.53125 -1.40625 2.75 -1.15625 C 2.96875 -0.914062 3.265625 -0.796875 3.640625 -0.796875 Z M 3.640625 -0.796875 "/></g></g></g></svg>